<svg xmlns="http://www.w3.org/2000/svg" viewBox="0 0 512 512" width="512" height="512">
  <defs>
    <linearGradient id="g" x1="0" y1="0" x2="1" y2="1">
      <stop offset="0" stop-color="#22c55e"/>
      <stop offset="1" stop-color="#15803d"/>
    </linearGradient>
  </defs>
  <rect width="512" height="512" rx="112" fill="url(#g)"/>
  <!-- yaprak / sağlık simgesi -->
  <path d="M256 120c-70 0-128 54-128 132 0 62 40 108 96 128 6 2 12-3 12-9V236c0-9 7-16 16-16s16 7 16 16v135c0 6 6 11 12 9 56-20 96-66 96-128 0-78-58-132-120-132z" fill="#ffffff" opacity="0.95"/>
  <circle cx="256" cy="118" r="26" fill="#ffffff"/>
</svg>
